<svg width="32" height="28" viewBox="0 0 32 28" fill="none" xmlns="http://www.w3.org/2000/svg">
<g clip-path="url(#clip0_2_87)">
<path d="M11.8108 0.0445201C11.8108 9.39269 11.8108 18.6518 11.8108 27.9332C14.6249 27.9332 17.3964 27.9332 20.2532 27.9332C20.2532 27.5103 20.2532 27.1542 20.2532 26.7981C20.2532 20.0541 20.2532 13.31 20.2532 6.56598C20.2532 5.20827 20.3171 5.1415 21.6389 5.11924C24.7728 5.11924 27.8854 5.11924 31.0193 5.11924C31.3178 5.11924 31.6376 5.09698 31.9787 5.07473C31.9787 4.38474 31.9787 3.80605 31.9787 3.20509C31.9574 1.42449 30.8488 0.0890352 29.1646 0.0667776C23.4297 0.0222625 17.6736 0.0445201 11.8108 0.0445201Z" fill="#FEFDFD"/>
<path d="M0.106567 14.7345C0.106567 17.0493 0.106567 19.3196 0.106567 21.5676C3.62422 21.5676 7.03528 21.5676 10.489 21.5676C10.489 19.2528 10.489 17.0048 10.489 14.7345C7.01396 14.7345 3.58158 14.7345 0.106567 14.7345Z" fill="#FEFDFD"/>
<path d="M0.0852661 13.31C3.62424 13.31 7.0353 13.31 10.5103 13.31C10.5103 10.9952 10.5103 8.74722 10.5103 6.4547C7.01398 6.4547 3.5816 6.4547 0.0852661 6.4547C0.0852661 8.76948 0.0852661 10.9952 0.0852661 13.31Z" fill="#FEFDFD"/>
<path d="M21.575 6.4547C21.575 8.74722 21.575 11.0175 21.575 13.31C25.05 13.31 28.5037 13.31 31.9147 13.31C31.9147 10.973 31.9147 8.74722 31.9147 6.4547C28.4397 6.4547 25.05 6.4547 21.575 6.4547Z" fill="#FEFDFD"/>
<path d="M21.5536 14.7122C21.5536 17.0715 21.5536 19.3195 21.5536 21.5676C25.0287 21.5676 28.461 21.5676 31.8934 21.5676C31.8934 19.2528 31.8934 16.9825 31.8934 14.7122C28.4397 14.7122 25.05 14.7122 21.5536 14.7122Z" fill="#FEFDFD"/>
<path d="M10.5105 0.111539C10.34 0.0670242 10.2547 0.0447667 10.1907 0.0447667C8.10146 0.0447667 6.01219 0.156054 3.92292 0.0225092C1.02352 -0.177809 -0.554099 1.78086 0.192071 5.05271C3.60313 5.05271 7.03551 5.05271 10.5105 5.05271C10.5105 3.3834 10.5105 1.78086 10.5105 0.111539Z" fill="#FEFDFD"/>
<path d="M10.5103 22.9921C7.01397 22.9921 3.56028 22.9921 0.0213013 22.9921C0.0213013 23.4817 0.0213013 23.9269 0.0213013 24.372C0.0213013 26.7981 1.21517 28.0223 3.56028 28C5.43636 28 7.31244 28 9.18852 28C9.63622 28 10.0626 27.9555 10.5103 27.9332C10.5103 26.1971 10.5103 24.6169 10.5103 22.9921Z" fill="#FEFDFD"/>
<path d="M21.4897 27.9777C24.1972 27.9777 26.7768 28.0445 29.3564 27.9555C30.6356 27.911 31.7655 26.8203 31.9147 25.6407C32.0213 24.7727 31.9361 23.8824 31.9361 22.9921C28.4184 22.9921 24.986 22.9921 21.511 22.9921C21.4897 23.2369 21.4897 23.4149 21.4897 23.593C21.4897 24.9952 21.4897 26.3975 21.4897 27.9777Z" fill="#FEFDFD"/>
<path d="M11.8108 0.0445201C17.6736 0.0445201 23.4297 0.0222625 29.1646 0.0667776C30.8488 0.0890352 31.936 1.40223 31.9787 3.20509C31.9787 3.80605 31.9787 4.38474 31.9787 5.07473C31.6376 5.09698 31.3178 5.11924 31.0193 5.11924C27.8854 5.11924 24.7728 5.11924 21.6389 5.11924C20.3171 5.11924 20.2532 5.18601 20.2532 6.56598C20.2532 13.31 20.2532 20.0541 20.2532 26.7981C20.2532 27.1542 20.2532 27.5103 20.2532 27.9332C17.3964 27.9332 14.6462 27.9332 11.8108 27.9332C11.8108 18.6518 11.8108 9.41495 11.8108 0.0445201Z" fill="white"/>
<path d="M0.106567 14.7345C3.56026 14.7345 6.99264 14.7345 10.489 14.7345C10.489 17.0048 10.489 19.2528 10.489 21.5676C7.03528 21.5676 3.62422 21.5676 0.106567 21.5676C0.106567 19.3196 0.106567 17.0493 0.106567 14.7345Z" fill="white"/>
<path d="M0.0852661 13.31C0.0852661 10.9952 0.0852661 8.74722 0.0852661 6.4547C3.5816 6.4547 7.01398 6.4547 10.5103 6.4547C10.5103 8.74722 10.5103 10.9952 10.5103 13.31C7.0353 13.31 3.62424 13.31 0.0852661 13.31Z" fill="white"/>
<path d="M21.575 6.4547C25.05 6.4547 28.4397 6.4547 31.9147 6.4547C31.9147 8.72497 31.9147 10.973 31.9147 13.31C28.5037 13.31 25.05 13.31 21.575 13.31C21.575 10.9952 21.575 8.74722 21.575 6.4547Z" fill="white"/>
<path d="M21.5536 14.7122C25.0287 14.7122 28.4184 14.7122 31.8934 14.7122C31.8934 16.9825 31.8934 19.2528 31.8934 21.5676C28.4397 21.5676 25.0287 21.5676 21.5536 21.5676C21.5536 19.3195 21.5536 17.0715 21.5536 14.7122Z" fill="white"/>
<path d="M10.5105 0.111537C10.5105 1.78085 10.5105 3.3834 10.5105 5.07497C7.03551 5.07497 3.60313 5.07497 0.192071 5.07497C-0.554099 1.78085 1.02352 -0.177811 3.92292 0.0225069C6.01219 0.133795 8.10146 0.0447644 10.1907 0.0447644C10.2547 0.0447644 10.34 0.067022 10.5105 0.111537Z" fill="white"/>
<path d="M10.5103 22.9921C10.5103 24.6169 10.5103 26.1971 10.5103 27.9332C10.0839 27.9555 9.63622 28 9.18852 28C7.31244 28 5.43636 28 3.56028 28C1.21517 28.0223 0.0213013 26.7981 0.0213013 24.372C0.0213013 23.9269 0.0213013 23.504 0.0213013 22.9921C3.56028 22.9921 7.01397 22.9921 10.5103 22.9921Z" fill="white"/>
<path d="M21.4897 27.9777C21.4897 26.3975 21.4897 24.9952 21.4897 23.593C21.4897 23.4149 21.511 23.2369 21.511 22.9921C24.986 22.9921 28.4184 22.9921 31.9361 22.9921C31.9361 23.8824 32.0213 24.7727 31.9147 25.6407C31.7655 26.8203 30.6356 27.911 29.3564 27.9555C26.7981 28.0445 24.1972 27.9777 21.4897 27.9777Z" fill="white"/>
</g>
<defs>
<clipPath id="clip0_2_87">
<rect width="32" height="28" fill="white"/>
</clipPath>
</defs>
</svg>
